<svg id="e86hcpjtZJB1" xmlns="http://www.w3.org/2000/svg" xmlns:xlink="http://www.w3.org/1999/xlink" viewBox="0 0 52.916662 52.916667" shape-rendering="geometricPrecision" text-rendering="geometricPrecision"><g><rect width="50" height="50" rx="4.653124" ry="4.653124" transform="translate(1.45833 1.45833)" stroke-width="0.290898"/><path d="M41.458334,26.458334c0,8.284271-6.715729,15-15,15s-15-6.715729-15-15s6.715729-15,15-15s15,6.715729,15,15Z" fill="#fff" stroke-width="0.301457"/><path d="M23.262663,11.81685c-6.885791,1.501389-11.797785,7.593913-11.804448,14.641483.006662,7.047571,4.918656,13.140095,11.804448,14.641484-3.979356-3.784396-6.241251-9.087357-6.245097-14.641484.003846-5.554127,2.265742-10.857087,6.245097-14.641483Z" fill="#808080" stroke-width="0.301457"/><circle r="0.888968" transform="translate(34.5004 19.007)" fill="#c80000" stroke-width="0.265"/><circle r="2" transform="translate(34.5004 19.007)" fill="none" fill-opacity="0.483108" stroke="#c80000" stroke-width="0.202"/><circle r="4.09661" transform="translate(34.5004 19.007)" fill="none" stroke="#c80000" stroke-width="0.165"/><circle r="6.58528" transform="translate(34.5004 19.007)" fill="none" stroke="#c80000" stroke-width="0.165"/></g></svg>
